<?xml version="1.0" encoding="UTF-8" standalone="no"?>
<svg width="330px" height="73px" viewBox="0 0 330 73" version="1.1" xmlns="http://www.w3.org/2000/svg" xmlns:xlink="http://www.w3.org/1999/xlink">
    <!-- Generator: Sketch 43.1 (39012) - http://www.bohemiancoding.com/sketch -->
    <title>Group 3</title>
    <desc>Created with Sketch.</desc>
    <defs></defs>
    <g id="Page-1" stroke="none" stroke-width="1" fill="none" fill-rule="evenodd">
        <g id="Group-3">
            <rect id="Rectangle-Copy" fill="#FFFFFF" x="0" y="0" width="330" height="73"></rect>
            <path d="M41.64,36.52 L40.36,43.2 L40.24,43.2 L38.96,36.48 L34.52,22.64 L26.84,22.64 L37.04,50.96 L43.6,50.96 L53.8,22.64 L46.12,22.64 L41.64,36.52 Z M71.6,22.68 L81.72,51 L74.04,51 L72.2,45.32 L64.64,45.32 L62.88,51 L55.2,51 L65.08,22.68 L71.6,22.68 Z M66.24,38.96 L70.48,38.96 L68.52,30.68 L68.32,30.68 L66.24,38.96 Z M106.16,29.44 L106.16,22.64 L83.88,22.64 L83.88,29.44 L91.4,29.44 L91.4,51 L98.64,51 L98.64,29.44 L106.16,29.44 Z M113.96,51 L121.12,51 L121.12,42.84 L120.64,37.12 L120.84,37.08 L124.64,46.8 L129.56,46.8 L133.28,37.08 L133.52,37.12 L133.08,42.84 L133.04,51 L140.24,51 L140.24,22.68 L133.08,22.68 L127.08,36.52 L121.12,22.68 L113.96,22.68 L113.96,51 Z M149.04,41.68 L149.04,32 C149.04,25.48 154.88,22.28 160.76,22.28 C166.64,22.28 172.52,25.52 172.52,32 L172.52,41.68 C172.52,48.16 166.68,51.4 160.8,51.4 C154.92,51.4 149.04,48.16 149.04,41.68 Z M156.2,32 L156.2,41.68 C156.2,43.76 158.52,44.76 160.8,44.76 C163.08,44.76 165.36,43.72 165.36,41.68 L165.36,32 C165.36,29.8 163,28.8 160.68,28.8 C158.44,28.8 156.2,29.92 156.2,32 Z M201.88,31.32 C201.84,32.6 201,34.88 198.96,35.92 C202.84,37.88 203.32,41.52 202.96,43.68 C202.24,48.24 199.16,51 192.88,51 L181.32,51 L181.32,22.68 L192.68,22.68 C198.08,22.68 202.04,25.92 201.88,31.32 Z M188.52,33.76 L192.68,33.76 C196.16,33.76 196.28,28.72 192.68,28.72 L188.52,28.72 L188.52,33.76 Z M188.52,44.72 L192.68,44.72 C197,44.72 196.92,38.92 192.68,38.92 L188.52,38.92 L188.52,44.72 Z M218.44,22.68 L211.28,22.68 L211.28,51 L218.44,51 L218.44,22.68 Z M227.92,51 L246.64,51 L246.64,43.92 L235.12,43.92 L235.12,22.68 L227.92,22.68 L227.92,51 Z M248.4,47.2 C248.4,49.44 250.16,51.24 252.36,51.24 C254.56,51.24 256.36,49.44 256.36,47.2 C256.36,45 254.56,43.24 252.36,43.24 C250.16,43.24 248.4,45 248.4,47.2 Z M259.76,51 L259.76,22.68 L271.08,22.68 C278,22.68 281.44,27.68 281.44,32.68 C281.44,37.72 277.96,42.72 271.12,42.72 L266.92,42.72 L266.92,51 L259.76,51 Z M266.92,36.36 L271.08,36.36 C275.4,36.4 275.4,29.32 271.08,29.36 L266.92,29.36 L266.92,36.36 Z M284.48,51 L303.2,51 L303.2,43.92 L291.68,43.92 L291.68,22.68 L284.48,22.68 L284.48,51 Z" id="VATMOBIL.pl-Copy" fill="#37484F"></path>
        </g>
    </g>
</svg>